<svg xmlns="http://www.w3.org/2000/svg" width="18" height="18" viewBox="0 0 18 18">
  <path d="M8.25391 1.50464C11.9799 1.50464 15.0039 4.52864 15.0039 8.25464C15.0039 11.9806 11.9799 15.0046 8.25391 15.0046C4.52791 15.0046 1.50391 11.9806 1.50391 8.25464C1.50391 4.52864 4.52791 1.50464 8.25391 1.50464ZM8.25391 13.5046C11.1545 13.5046 13.5039 11.1553 13.5039 8.25464C13.5039 5.35401 11.1545 3.00464 8.25391 3.00464C5.35328 3.00464 3.00391 5.35401 3.00391 8.25464C3.00391 11.1553 5.35328 13.5046 8.25391 13.5046ZM14.6179 13.558L16.7392 15.6793L15.6785 16.7399L13.5572 14.6186L14.6179 13.558Z" />
</svg>
