<svg xmlns="http://www.w3.org/2000/svg" width="24" height="24" viewBox="0 0 24 24">
  <path d="M2.67773 17.1426C2.67789 16.7285 3.01361 16.3926 3.42773 16.3926C3.84185 16.3926 4.17758 16.7285 4.17773 17.1426V19.25H19.8203V17.1426C19.8205 16.7286 20.1563 16.3927 20.5703 16.3926C20.9844 16.3926 21.3202 16.7285 21.3203 17.1426V20C21.3203 20.4142 20.9845 20.75 20.5703 20.75H3.42773C3.01352 20.75 2.67773 20.4142 2.67773 20V17.1426ZM11.249 4C11.249 3.58583 11.5849 3.25008 11.999 3.25C12.4132 3.25 12.749 3.58579 12.749 4V14.9639L16.0283 11.5293C16.3143 11.2297 16.7892 11.2179 17.0889 11.5039C17.3884 11.7898 17.3991 12.2648 17.1133 12.5645L12.542 17.3545C12.4 17.5032 12.2027 17.5874 11.9971 17.5869C11.7916 17.5863 11.5953 17.5009 11.4541 17.3516L6.88281 12.5156C6.59838 12.2147 6.61138 11.7396 6.91211 11.4551C7.21304 11.1706 7.6881 11.1836 7.97266 11.4844L11.249 14.9502V4Z"/>
</svg>
